# xmcd
#
# Track frame offsets: 
#        150
#        17777
#        34587
#        46833
#        55193
#        64813
#        76173
#        84772
#        101874
#        111685
#        123401
#        131653
#        141195
#        151641
#
# Disc length: 2182 seconds
#
# Revision: 0
# Processed by: cddbd v1.5.2PL0 Copyright (c) Steve Scherf et al.
# Submitted via: ExactAudioCopy v0.95b4
#
DISCID=b308840e
DTITLE=Tina Turner - River Deep Mountain High
DYEAR=2000
DGENRE=R&B
TTITLE0=River Deep - Mountain High
TTITLE1=I've Been Loving You Too Long
TTITLE2=Nutbush City Limits
TTITLE3=I Wish My Dreams Would Come True
TTITLE4=Too Hot To Hold
TTITLE5=She Came In Through The Bathroom Window
TTITLE6=Chicken Shack
TTITLE7=I Smell Trouble
TTITLE8=Mojo Queen
TTITLE9=Letter From Tina
TTITLE10=My Babe
TTITLE11=Ain't Nobody's Business
TTITLE12=Hard Times
TTITLE13=We Need Understanding
EXTD=
EXTT0=
EXTT1=
EXTT2=
EXTT3=
EXTT4=
EXTT5=
EXTT6=
EXTT7=
EXTT8=
EXTT9=
EXTT10=
EXTT11=
EXTT12=
EXTT13=
PLAYORDER=
